<?xml version="1.0" standalone="no"?><!DOCTYPE svg PUBLIC "-//W3C//DTD SVG 1.1//EN" "http://www.w3.org/Graphics/SVG/1.1/DTD/svg11.dtd"><svg t="1595927792711" class="icon" viewBox="0 0 1024 1024" version="1.1" xmlns="http://www.w3.org/2000/svg" p-id="1206" xmlns:xlink="http://www.w3.org/1999/xlink" width="200" height="200"><defs><style type="text/css"></style></defs><path d="M529.6 96.4c-19.5 5.9-37 15.6-50.7 29.3L118.3 486.3c-15.2 13.2-25.5 31-29.3 50.7l432.7-7.9 7.9-432.7z m0 0" p-id="1207" fill="#ffffff"></path><path d="M911.3 860.9l-311.5 1 302.1-313c44.9-44.9 44.9-115.1 2-157.9l-269-271c-13.7-13.8-31.4-23.3-50.7-27.3l-7.8 460c0 7.8-3.9 15.6-9.8 21.5s-13.7 9.8-21.5 9.8l-458 5.9c3.9 17.6 13.7 35 27.3 50.7L325 860.9H112.8c-25.3 0-44.8 9.7-44.8 35 0 25.4 19.5 35 44.8 35h798.4c25.4 0 44.8-9.7 44.8-35 0.1-23.3-19.4-35-44.7-35z m0 0" p-id="1208" fill="#ffffff"></path></svg>