<?xml version="1.0" standalone="no"?><!DOCTYPE svg PUBLIC "-//W3C//DTD SVG 1.1//EN" "http://www.w3.org/Graphics/SVG/1.1/DTD/svg11.dtd"><svg t="1592377840699" class="icon" viewBox="0 0 1028 1024" version="1.1" xmlns="http://www.w3.org/2000/svg" p-id="1051" xmlns:xlink="http://www.w3.org/1999/xlink" width="200.78125" height="200"><defs><style type="text/css"></style></defs><path d="M869.844953 593.341469c-38.375513-4.263946-76.751025-12.791838-110.862592-25.583675-46.903404-17.055783-98.070754-4.263946-136.446267 29.847621l-29.847621 29.847621C515.937448 576.285686 447.714314 512.326498 396.546964 431.311527l29.847621-29.847621c34.111567-34.111567 46.903404-89.542863 29.847621-136.446267-12.791838-34.111567-21.319729-72.487079-25.583675-110.862592-8.527892-63.959188-63.959188-110.862592-127.918376-110.862592H162.029942c-34.111567 4.263946-63.959188 21.319729-85.278917 46.903404S46.903404 149.891101 46.903404 184.002668c12.791838 136.446267 63.959188 272.892534 136.446267 388.019072 68.223134 106.598646 162.029942 200.405455 268.628589 268.628589C567.104798 917.401354 703.551065 964.304758 839.997332 977.096596h12.791837c34.111567 0 68.223134-12.791838 89.542863-38.375513s38.375513-55.431296 38.375513-89.542863v-127.918375c0-63.959188-46.903404-119.390484-110.862592-127.918376z m25.583675 127.918376v127.918375c0 12.791838-4.263946 21.319729-12.791838 29.847621s-17.055783 12.791838-34.111566 12.791838c-123.65443-12.791838-243.044913-55.431296-349.64356-123.65443C400.81091 708.468007 319.795939 623.18909 255.836751 525.118336c-68.223134-106.598646-110.862592-225.98913-123.65443-349.64356 0-12.791838 4.263946-21.319729 8.527892-29.847621 8.527892-8.527892 21.319729-17.055783 34.111567-17.055783h127.918375c21.319729 0 38.375513 17.055783 42.639459 38.375513 4.263946 42.639458 17.055783 89.542863 34.111566 127.918375 4.263946 17.055783 0 34.111567-8.527891 46.903404l-55.431296 51.167351c-12.791838 12.791838-17.055783 34.111567-8.527892 51.16735 63.959188 115.126538 157.765996 208.933347 272.892534 272.892534 17.055783 8.527892 38.375513 8.527892 51.16735-8.527892l55.431296-55.431296c12.791838-12.791838 29.847621-17.055783 46.903405-8.527891 42.639458 17.055783 85.278917 25.583675 127.918375 34.111566 17.055783 4.263946 34.111567 21.319729 34.111567 42.639459zM648.119769 0.652997c-21.319729-4.263946-42.639458 12.791838-46.903405 38.375512-4.263946 21.319729 12.791838 42.639458 38.375513 46.903405 157.765996 17.055783 281.420426 140.710213 302.740155 302.740155 4.263946 21.319729 21.319729 38.375513 42.639459 38.375512h4.263946c21.319729-4.263946 38.375513-25.583675 38.375512-46.903404C1002.027274 179.738722 844.261278 21.972726 648.119769 0.652997z" p-id="1052"></path><path d="M767.510253 388.672069c4.263946 21.319729 21.319729 34.111567 42.639458 34.111567h8.527892c21.319729-4.263946 38.375513-25.583675 34.111566-51.167351-21.319729-102.3347-98.070754-183.349671-200.405454-200.405454-21.319729-4.263946-46.903404 8.527892-51.167351 34.111566s8.527892 46.903404 34.111567 51.16735c68.223134 12.791838 119.390484 63.959188 132.182322 132.182322z" p-id="1053"></path></svg>