<?xml version="1.0" standalone="no"?><!DOCTYPE svg PUBLIC "-//W3C//DTD SVG 1.1//EN" "http://www.w3.org/Graphics/SVG/1.1/DTD/svg11.dtd"><svg t="1591864482629" class="icon" viewBox="0 0 1024 1024" version="1.1" xmlns="http://www.w3.org/2000/svg" p-id="4003" xmlns:xlink="http://www.w3.org/1999/xlink" width="200" height="200"><defs><style type="text/css"></style></defs><path d="M926.342144 849.004544c34.132992-59.40224 15.22688-105.025536-45.21984-150.674432-71.057408-53.664768-140.500992-89.761792-190.43328-31.939584 0 0-52.989952 63.081472-208.927744-84.535296-181.32992-172.8512-105.227264-234.155008-105.227264-234.155008 63.065088-63.401984 22.976512-110.700544-29.915136-182.334464-52.887552-71.632896-106.313728-94.30528-183.013376-32.697344C15.804416 251.394048 224.212992 530.164736 329.58464 638.56128l-0.004096 0.008192c0 0 160.234496 165.740544 261.066752 220.915712l53.941248 30.16192c77.366272 39.701504 164.267008 57.875456 225.446912 21.009408C870.035456 910.65856 899.526656 895.489024 926.342144 849.004544z" p-id="4004"></path><path d="M758.02624 269.44512 617.805824 269.44512c-10.227712 0-18.51904 8.291328-18.51904 18.51904s8.291328 18.51904 18.51904 18.51904l96.021504 0L586.5984 432.610304c-7.264256 7.200768-7.315456 18.926592-0.113664 26.189824 3.620864 3.652608 8.385536 5.481472 13.15328 5.481472 4.712448 0 9.42592-1.787904 13.036544-5.367808l126.83264-125.732864L739.5072 430.3872c0 10.227712 8.291328 18.51904 18.51904 18.51904s18.51904-8.291328 18.51904-18.51904L776.54528 287.96416C776.54528 277.736448 768.253952 269.44512 758.02624 269.44512z" p-id="4005"></path></svg>