<?xml version="1.0" standalone="no"?><!DOCTYPE svg PUBLIC "-//W3C//DTD SVG 1.1//EN" "http://www.w3.org/Graphics/SVG/1.1/DTD/svg11.dtd"><svg t="1595513460926" class="icon" viewBox="0 0 1024 1024" version="1.1" xmlns="http://www.w3.org/2000/svg" p-id="1632" xmlns:xlink="http://www.w3.org/1999/xlink" width="200" height="200"><defs><style type="text/css"></style></defs><path d="M549.3 543.4h64.2c2-9.6 3.9-21 3.9-30.6 0-68.8-62.2-126.1-134.2-118.4-54.4 5.7-99.1 49.6-104.9 103.1-7.8 70.7 48.6 131.8 120.5 131.8v-34.4c-2-28.6 21.4-51.6 50.5-51.5M938 944.5H576.5c-7.8 0-15.5-9.5-15.5-21v-49.6c0-11.5 5.8-21 15.5-21H938c7.8 0 15.5 9.5 15.5 21v49.6c-1.9 11.5-7.7 21-15.5 21m0.1-126.1H576.5c-7.8 0-15.5-9.5-15.5-21v-49.6c0-11.5 5.8-21 15.5-21H938c7.8 0 15.5 9.5 15.5 21v49.6c-1.9 11.5-7.7 21-15.4 21m0-126.1H576.5c-7.8 0-15.5-9.5-15.5-21v-49.6c0-11.5 5.8-21 15.5-21H938c7.8 0 15.5 9.5 15.5 21v49.6c-1.9 11.5-7.7 21-15.4 21z m-624-179.5c0 99.3 81.6 181.4 184.6 181.4v250.2H423c-29.2 0-52.5-21-54.4-49.6l-9.7-63.1c-26.2-10.9-51-25.1-73.9-42l-60.3 24.8c-12 6.1-25.9 7.4-38.8 3.8-13.6-4.2-25.3-12.9-33.1-24.8L77 665.6c-13.6-24.8-7.8-55.4 17.5-70.7l52.5-40.1c-2-15.3-2-28.7-2-42 0-13.4 0-26.8 2-42.1l-50.5-40.1C71.8 416.4 63.1 384.9 77 360l75.8-128c15.5-24.9 46.7-34.4 71.9-21l60.3 24.8c23.3-17.2 46.7-30.6 73.9-42l7.8-64.9c1.9-26.8 25.3-49.7 54.4-49.7h151.6c29.1 0 52.5 22.9 52.5 51.6l9.7 63c26.8 9.8 51.8 24 73.9 42L769 211c11.6-5.8 25.3-7.6 38.8-3.8 13.7 3.8 25.3 13.4 33.1 24.9l77.7 128c13.6 24.5 6 55.3-17.5 70.7l-52.5 40.1c2 13.4 2 28.6 2 42.1 0 9.5 0 21-2 30.6H681.5c0-9.6 2-19.2 2-30.6 0-99.4-83.6-181.5-184.7-181.5-101.1-0.2-184.6 82-184.7 181.3z m0 0" p-id="1633"></path></svg>