<?xml version="1.0" standalone="no"?><!DOCTYPE svg PUBLIC "-//W3C//DTD SVG 1.1//EN" "http://www.w3.org/Graphics/SVG/1.1/DTD/svg11.dtd"><svg t="1595513279316" class="icon" viewBox="0 0 1024 1024" version="1.1" xmlns="http://www.w3.org/2000/svg" p-id="1201" xmlns:xlink="http://www.w3.org/1999/xlink" width="200" height="200"><defs><style type="text/css"></style></defs><path d="M840.2 113.9H698.4v67.3c-0.6 18.5-6.1 33.1-16.4 43.9-10.4 10.9-24.3 16.6-41.9 17.2H383.7c-17.7-0.6-31.6-6.3-41.9-17.2-10.3-10.8-15.8-25.5-16.4-43.9v-67.3H183.8c-41.4 0-75.3 33.9-75.3 75.3v699.6c0 41.4 33.9 75.3 75.3 75.3h656.4c41.4 0 75.3-33.9 75.3-75.3V189.2c0-41.4-33.9-75.3-75.3-75.3zM597.5 591.8c-22.4 22.3-53.2 35-85.5 35.1-33.3-1.3-61.8-13.7-85.4-37.5-23.7-23.7-35.8-52.4-36.4-85.8 0.6-32.9 12.2-61.2 34.6-84.9 22.4-23.8 51.6-36.2 87.3-37.4 35.8 1.2 64.9 13.7 87.4 37.5 22.2 23.2 34.6 53.5 34.6 84.9-0.8 35.9-13 65.3-36.6 88.1z m111.6 202.3c-7 9.7-15.4 14.9-25.4 15.6H340.3c-10 0-18.3-4.4-25.3-13-7-8.7-9.1-20-6.5-33.9 7.3-30.6 21.7-54.8 43.2-72.4 21.6-17.7 45.2-27 71-27.6h12.9c25.9 13.1 51.4 19.8 76.5 19.8 25.2 0 50.7-6.7 76.5-19.8h12.9c25.6 0.6 50 10.4 69 27.6 20.2 17.7 35.3 41.8 45.2 72.4 2.6 10.9 0.2 22.3-6.6 31.3z" p-id="1202" fill="#ffffff"></path><path d="M631.9 84.7C621.6 73.5 607.4 68 589.1 68H434.9c-18.2 0-32.5 5.5-42.8 16.7-10.3 11.1-15.4 26-15.4 44.4v66.8h270.6v-66.8c0-18.4-5.1-33.3-15.4-44.4z" p-id="1203" fill="#ffffff"></path></svg>